<svg width="336" height="311" viewBox="0 0 336 311" fill="none" xmlns="http://www.w3.org/2000/svg">
<path d="M168 0C260.784 0 336 75.2162 336 168C336 228.025 304.519 280.695 257.169 310.406C260.429 272.459 192.228 232.332 218 227.5C261.5 219.344 271.5 165.709 259 162.5C222 153 254 109.5 183 92C157.273 85.6588 176 56.0001 160 49.5C126.86 54.8873 14.7295 124.555 47.2666 284.818C18.0075 254.585 0 213.396 0 168C0 75.2162 75.2162 0 168 0Z" fill="#6ECBF5"/>
<path d="M168 0C260.784 0 336 75.2162 336 168C336 228.025 304.519 280.695 257.169 310.406C260.429 272.459 192.228 232.332 218 227.5C261.5 219.344 271.5 165.709 259 162.5C222 153 254 109.5 183 92C157.273 85.6588 176 56.0001 160 49.5C126.86 54.8873 14.7295 124.555 47.2666 284.818C18.0075 254.585 0 213.396 0 168C0 75.2162 75.2162 0 168 0Z" fill="url(#paint0_linear_202_27)" fill-opacity="0.74"/>
<path d="M168 0C260.784 0 336 75.2162 336 168C336 228.025 304.519 280.695 257.169 310.406C260.429 272.459 192.228 232.332 218 227.5C261.5 219.344 271.5 165.709 259 162.5C222 153 254 109.5 183 92C157.273 85.6588 176 56.0001 160 49.5C126.86 54.8873 14.7295 124.555 47.2666 284.818C18.0075 254.585 0 213.396 0 168C0 75.2162 75.2162 0 168 0Z" fill="url(#paint1_linear_202_27)" fill-opacity="0.4"/>
<path d="M168 0C260.784 0 336 75.2162 336 168C336 228.025 304.519 280.695 257.169 310.406C260.429 272.459 192.228 232.332 218 227.5C261.5 219.344 271.5 165.709 259 162.5C222 153 254 109.5 183 92C157.273 85.6588 176 56.0001 160 49.5C126.86 54.8873 14.7295 124.555 47.2666 284.818C18.0075 254.585 0 213.396 0 168C0 75.2162 75.2162 0 168 0Z" fill="url(#paint2_linear_202_27)" fill-opacity="0.4"/>
<path d="M168 0C260.784 0 336 75.2162 336 168C336 228.025 304.519 280.695 257.169 310.406C260.429 272.459 192.228 232.332 218 227.5C261.5 219.344 271.5 165.709 259 162.5C222 153 254 109.5 183 92C157.273 85.6588 176 56.0001 160 49.5C126.86 54.8873 14.7295 124.555 47.2666 284.818C18.0075 254.585 0 213.396 0 168C0 75.2162 75.2162 0 168 0Z" fill="url(#paint3_linear_202_27)" fill-opacity="0.13"/>
<path d="M168 0C260.784 0 336 75.2162 336 168C336 228.025 304.519 280.695 257.169 310.406C260.429 272.459 192.228 232.332 218 227.5C261.5 219.344 271.5 165.709 259 162.5C222 153 254 109.5 183 92C157.273 85.6588 176 56.0001 160 49.5C126.86 54.8873 14.7295 124.555 47.2666 284.818C18.0075 254.585 0 213.396 0 168C0 75.2162 75.2162 0 168 0Z" fill="url(#paint4_linear_202_27)" fill-opacity="0.57"/>
<defs>
<linearGradient id="paint0_linear_202_27" x1="304.066" y1="190.855" x2="265.862" y2="148.368" gradientUnits="userSpaceOnUse">
<stop stop-color="#1456FE" stop-opacity="0"/>
<stop offset="1" stop-color="#336CFB"/>
</linearGradient>
<linearGradient id="paint1_linear_202_27" x1="258.942" y1="168.304" x2="200.38" y2="101.289" gradientUnits="userSpaceOnUse">
<stop stop-color="#440493" stop-opacity="0"/>
<stop offset="1" stop-color="#440493"/>
</linearGradient>
<linearGradient id="paint2_linear_202_27" x1="227.008" y1="153.049" x2="194.708" y2="119.241" gradientUnits="userSpaceOnUse">
<stop stop-color="#D504FF" stop-opacity="0"/>
<stop offset="1" stop-color="#D504FF"/>
</linearGradient>
<linearGradient id="paint3_linear_202_27" x1="274.909" y1="254.196" x2="287.156" y2="271.288" gradientUnits="userSpaceOnUse">
<stop stop-color="#00DB30" stop-opacity="0"/>
<stop offset="1" stop-color="#00DB30"/>
</linearGradient>
<linearGradient id="paint4_linear_202_27" x1="302.678" y1="55.5497" x2="268.387" y2="14.8733" gradientUnits="userSpaceOnUse">
<stop stop-color="#FF69F0" stop-opacity="0"/>
<stop offset="1" stop-color="#FF69F0"/>
</linearGradient>
</defs>
</svg>
